<?xml version="1.0" encoding="utf-8"?>
<!-- Generator: Adobe Illustrator 21.0.0, SVG Export Plug-In . SVG Version: 6.00 Build 0)  -->
<svg version="1.1" id="图层_1" xmlns="http://www.w3.org/2000/svg" xmlns:xlink="http://www.w3.org/1999/xlink" x="0px" y="0px"
	 viewBox="0 0 280.4 40.1" style="enable-background:new 0 0 280.4 40.1;" xml:space="preserve">
<style type="text/css">
	.st0{fill:#EEEEEE;}
</style>
<g>
	<path class="st0" d="M18.3,34.7v4.8H0.5V8.1h17.8v4.8H6.7v8.3H17V26H6.7v8.7H18.3z"/>
	<path class="st0" d="M47.2,39.4l-9.4-15.2v15.2h-6.2V8.1h6.2v14l8.6-14h6.7l-9.4,15.1l10.2,16.2H47.2z"/>
	<path class="st0" d="M81.3,39.4l-9.4-15.2v15.2h-6.2V8.1h6.2v14l8.6-14h6.7l-9.4,15.1L88,39.4H81.3z"/>
	<path class="st0" d="M99.9,39.4V8.1h6.2v31.3H99.9z"/>
	<path class="st0" d="M142.4,39.4h-2.5V8.1h2.3l10.2,21.5l10.3-21.5h2.3v31.3h-2.5V13.8l-9.4,19.7h-1.6l-9.3-19.5V39.4z"/>
	<path class="st0" d="M199.3,8.1h2.6v23.4c0,2.4-1,4.4-2.9,5.9c-1.9,1.5-4.4,2.3-7.4,2.3s-5.5-0.8-7.4-2.3c-1.9-1.5-2.9-3.5-2.9-5.9
		V8.1h2.6v23.5c0,1.7,0.7,3.1,2.1,4.2c1.4,1.1,3.2,1.6,5.5,1.6s4.1-0.5,5.5-1.6c1.4-1.1,2.1-2.5,2.1-4.2V8.1z M187.9,5.3l7.4-4.2
		l1.2,1.5l-8,3.5L187.9,5.3z"/>
	<path class="st0" d="M218.3,39.4V8.1h2.6v31.3H218.3z M235.1,39.4L222,23.3l12.4-15.1h3.1L225,23.3l13.2,16.2H235.1z"/>
	<path class="st0" d="M251.9,39.4V8.1h2.6v31.3H251.9z M268.7,39.4l-13.2-16.2L268,8.1h3.1l-12.4,15.1l13.2,16.2H268.7z"/>
</g>
</svg>
